<svg width="247" height="247" viewBox="0 0 247 247" fill="none" xmlns="http://www.w3.org/2000/svg">
<path d="M115.346 181.99C117.385 179.951 120.151 178.805 123.036 178.805C125.92 178.805 128.686 179.951 130.725 181.99C132.765 184.03 133.91 186.796 133.91 189.68C133.91 192.564 132.765 195.33 130.725 197.37C128.686 199.409 125.92 200.555 123.036 200.555C120.151 200.555 117.385 199.409 115.346 197.37C113.306 195.33 112.161 192.564 112.161 189.68C112.161 186.796 113.306 184.03 115.346 181.99ZM148.668 148.668C150.707 146.629 153.474 145.483 156.358 145.483C159.242 145.483 162.008 146.629 164.047 148.668C166.087 150.708 167.233 153.474 167.233 156.358C167.233 159.242 166.087 162.008 164.047 164.048C162.008 166.087 159.242 167.233 156.358 167.233C153.474 167.233 150.707 166.087 148.668 164.048C146.629 162.008 145.483 159.242 145.483 156.358C145.483 153.474 146.629 150.708 148.668 148.668ZM181.99 115.346C184.03 113.307 186.796 112.161 189.68 112.161C192.564 112.161 195.33 113.307 197.37 115.346C199.409 117.385 200.555 120.152 200.555 123.036C200.555 125.92 199.409 128.686 197.37 130.726C195.33 132.765 192.564 133.911 189.68 133.911C186.796 133.911 184.03 132.765 181.99 130.726C179.951 128.686 178.805 125.92 178.805 123.036C178.805 120.152 179.951 117.385 181.99 115.346ZM82.0236 148.668C84.0631 146.629 86.8292 145.483 89.7134 145.483C92.5976 145.483 95.3637 146.629 97.4031 148.668C99.4426 150.708 100.588 153.474 100.588 156.358C100.588 159.242 99.4426 162.008 97.4031 164.048C95.3637 166.087 92.5976 167.233 89.7134 167.233C86.8292 167.233 84.0631 166.087 82.0236 164.048C79.9842 162.008 78.8384 159.242 78.8384 156.358C78.8384 153.474 79.9842 150.708 82.0236 148.668ZM115.346 115.346C117.385 113.307 120.151 112.161 123.036 112.161C125.92 112.161 128.686 113.307 130.725 115.346C132.765 117.385 133.91 120.152 133.91 123.036C133.91 125.92 132.765 128.686 130.725 130.726C128.686 132.765 125.92 133.911 123.036 133.911C120.151 133.911 117.385 132.765 115.346 130.726C113.306 128.686 112.161 125.92 112.161 123.036C112.161 120.152 113.306 117.385 115.346 115.346ZM148.668 82.0238C150.707 79.9844 153.474 78.8387 156.358 78.8387C159.242 78.8387 162.008 79.9844 164.047 82.0238C166.087 84.0633 167.233 86.8294 167.233 89.7136C167.233 92.5978 166.087 95.3639 164.047 97.4033C162.008 99.4428 159.242 100.589 156.358 100.589C153.474 100.589 150.707 99.4428 148.668 97.4033C146.629 95.3639 145.483 92.5978 145.483 89.7136C145.483 86.8294 146.629 84.0633 148.668 82.0238ZM48.7015 115.346C49.7113 114.336 50.9101 113.535 52.2295 112.989C53.5489 112.442 54.9631 112.161 56.3912 112.161C57.8193 112.161 59.2334 112.442 60.5528 112.989C61.8723 113.535 63.0711 114.336 64.0809 115.346C65.0908 116.356 65.8918 117.555 66.4383 118.874C66.9848 120.194 67.2661 121.608 67.2661 123.036C67.2661 124.464 66.9848 125.878 66.4383 127.197C65.8918 128.517 65.0908 129.716 64.0809 130.726C62.0415 132.765 59.2754 133.911 56.3912 133.911C53.507 133.911 50.7409 132.765 48.7015 130.726C46.662 128.686 45.5163 125.92 45.5163 123.036C45.5163 120.152 46.662 117.385 48.7015 115.346ZM82.0236 82.0238C83.0335 81.014 84.2323 80.213 85.5517 79.6665C86.8711 79.1199 88.2853 78.8386 89.7134 78.8386C91.1415 78.8386 92.5556 79.1199 93.875 79.6665C95.1944 80.213 96.3933 81.014 97.4031 82.0238C98.4129 83.0337 99.214 84.2325 99.7605 85.5519C100.307 86.8713 100.588 88.2855 100.588 89.7136C100.588 91.1417 100.307 92.5558 99.7605 93.8752C99.214 95.1946 98.4129 96.3935 97.4031 97.4033C95.3637 99.4428 92.5976 100.589 89.7134 100.589C86.8292 100.589 84.0631 99.4428 82.0236 97.4033C79.9842 95.3639 78.8384 92.5978 78.8384 89.7136C78.8384 86.8294 79.9842 84.0633 82.0236 82.0238Z" fill="#EC6969" fill-opacity="0.58"/>
</svg>
