<svg width="357" height="322" viewBox="0 0 357 322" fill="none" xmlns="http://www.w3.org/2000/svg">
<rect x="123.318" width="232.936" height="205.532" fill="#FF9F9F" fill-opacity="0.9"/>
<g style="mix-blend-mode:overlay" clip-path="url(#clip0_118_274)" filter="url(#filter0_d_118_274)">
<path d="M72.2222 230.082C77.4461 230.082 82.4561 232.157 86.1499 235.851C89.8438 239.545 91.919 244.554 91.919 249.778C91.919 255.002 89.8438 260.012 86.1499 263.706C82.4561 267.4 77.4461 269.475 72.2222 269.475C66.9983 269.475 61.9883 267.4 58.2944 263.706C54.6006 260.012 52.5254 255.002 52.5254 249.778C52.5254 244.554 54.6006 239.545 58.2944 235.851C61.9883 232.157 66.9983 230.082 72.2222 230.082ZM157.575 230.082C162.799 230.082 167.809 232.157 171.503 235.851C175.197 239.545 177.272 244.554 177.272 249.778C177.272 255.002 175.197 260.012 171.503 263.706C167.809 267.4 162.799 269.475 157.575 269.475C152.351 269.475 147.341 267.4 143.647 263.706C139.953 260.012 137.878 255.002 137.878 249.778C137.878 244.554 139.953 239.545 143.647 235.851C147.341 232.157 152.351 230.082 157.575 230.082ZM242.928 230.082C248.152 230.082 253.162 232.157 256.856 235.851C260.549 239.545 262.625 244.554 262.625 249.778C262.625 255.002 260.549 260.012 256.856 263.706C253.162 267.4 248.152 269.475 242.928 269.475C237.704 269.475 232.694 267.4 229 263.706C225.306 260.012 223.231 255.002 223.231 249.778C223.231 244.554 225.306 239.545 229 235.851C232.694 232.157 237.704 230.082 242.928 230.082ZM72.2222 144.729C77.4461 144.729 82.4561 146.804 86.1499 150.498C89.8438 154.192 91.919 159.202 91.919 164.426C91.919 169.649 89.8438 174.659 86.1499 178.353C82.4561 182.047 77.4461 184.122 72.2222 184.122C66.9983 184.122 61.9883 182.047 58.2944 178.353C54.6006 174.659 52.5254 169.649 52.5254 164.426C52.5254 159.202 54.6006 154.192 58.2944 150.498C61.9883 146.804 66.9983 144.729 72.2222 144.729ZM157.575 144.729C162.799 144.729 167.809 146.804 171.503 150.498C175.197 154.192 177.272 159.202 177.272 164.426C177.272 169.649 175.197 174.659 171.503 178.353C167.809 182.047 162.799 184.122 157.575 184.122C152.351 184.122 147.341 182.047 143.647 178.353C139.953 174.659 137.878 169.649 137.878 164.426C137.878 159.202 139.953 154.192 143.647 150.498C147.341 146.804 152.351 144.729 157.575 144.729ZM242.928 144.729C248.152 144.729 253.162 146.804 256.856 150.498C260.549 154.192 262.625 159.202 262.625 164.426C262.625 169.649 260.549 174.659 256.856 178.353C253.162 182.047 248.152 184.122 242.928 184.122C237.704 184.122 232.694 182.047 229 178.353C225.306 174.659 223.231 169.649 223.231 164.426C223.231 159.202 225.306 154.192 229 150.498C232.694 146.804 237.704 144.729 242.928 144.729ZM72.2222 59.3759C74.8088 59.3759 77.3701 59.8854 79.7598 60.8752C82.1496 61.8651 84.3209 63.316 86.1499 65.145C87.979 66.974 89.4298 69.1454 90.4197 71.5351C91.4095 73.9248 91.919 76.4861 91.919 79.0727C91.919 81.6593 91.4095 84.2206 90.4197 86.6104C89.4298 89.0001 87.979 91.1715 86.1499 93.0005C84.3209 94.8295 82.1496 96.2803 79.7598 97.2702C77.3701 98.2601 74.8088 98.7695 72.2222 98.7695C66.9983 98.7695 61.9883 96.6943 58.2944 93.0005C54.6006 89.3066 52.5254 84.2966 52.5254 79.0727C52.5254 73.8488 54.6006 68.8388 58.2944 65.145C61.9883 61.4511 66.9983 59.3759 72.2222 59.3759ZM157.575 59.3759C160.162 59.3759 162.723 59.8854 165.113 60.8752C167.502 61.8651 169.674 63.316 171.503 65.145C173.332 66.974 174.783 69.1454 175.773 71.5351C176.762 73.9248 177.272 76.4861 177.272 79.0727C177.272 81.6593 176.762 84.2206 175.773 86.6104C174.783 89.0001 173.332 91.1715 171.503 93.0005C169.674 94.8295 167.502 96.2803 165.113 97.2702C162.723 98.2601 160.162 98.7695 157.575 98.7695C152.351 98.7695 147.341 96.6943 143.647 93.0005C139.953 89.3066 137.878 84.2966 137.878 79.0727C137.878 73.8488 139.953 68.8388 143.647 65.145C147.341 61.4511 152.351 59.3759 157.575 59.3759ZM242.928 59.3759C245.514 59.3759 248.076 59.8854 250.466 60.8752C252.855 61.8651 255.027 63.316 256.856 65.145C258.685 66.974 260.135 69.1454 261.125 71.5351C262.115 73.9248 262.625 76.4861 262.625 79.0727C262.625 81.6593 262.115 84.2206 261.125 86.6104C260.135 89.0001 258.685 91.1715 256.856 93.0005C255.027 94.8295 252.855 96.2803 250.466 97.2702C248.076 98.2601 245.514 98.7695 242.928 98.7695C237.704 98.7695 232.694 96.6943 229 93.0005C225.306 89.3066 223.231 84.2966 223.231 79.0727C223.231 73.8488 225.306 68.8388 229 65.145C232.694 61.4511 237.704 59.3759 242.928 59.3759Z" fill="#333333" fill-opacity="0.85"/>
</g>
<defs>
<filter id="filter0_d_118_274" x="-4" y="6.85107" width="323.148" height="323.149" filterUnits="userSpaceOnUse" color-interpolation-filters="sRGB">
<feFlood flood-opacity="0" result="BackgroundImageFix"/>
<feColorMatrix in="SourceAlpha" type="matrix" values="0 0 0 0 0 0 0 0 0 0 0 0 0 0 0 0 0 0 127 0" result="hardAlpha"/>
<feOffset dy="4"/>
<feGaussianBlur stdDeviation="2"/>
<feComposite in2="hardAlpha" operator="out"/>
<feColorMatrix type="matrix" values="0 0 0 0 0 0 0 0 0 0 0 0 0 0 0 0 0 0 0.25 0"/>
<feBlend mode="normal" in2="BackgroundImageFix" result="effect1_dropShadow_118_274"/>
<feBlend mode="normal" in="SourceGraphic" in2="effect1_dropShadow_118_274" result="shape"/>
</filter>
<clipPath id="clip0_118_274">
<rect width="315.149" height="315.149" fill="white" transform="translate(0 6.85107)"/>
</clipPath>
</defs>
</svg>
