<svg width="323" height="357" viewBox="0 0 323 357" fill="none" xmlns="http://www.w3.org/2000/svg">
<rect x="0.0371094" y="232.936" width="232.936" height="205.532" transform="rotate(-89.9832 0.0371094 232.936)" fill="#FF9F9F" fill-opacity="0.9"/>
<g style="mix-blend-mode:overlay" filter="url(#filter0_d_118_325)">
<path d="M230.104 284.101C230.106 278.877 232.182 273.868 235.877 270.175C239.572 266.482 244.583 264.409 249.807 264.41C255.031 264.412 260.04 266.488 263.733 270.183C267.425 273.878 269.499 278.889 269.498 284.113C269.496 289.337 267.419 294.346 263.724 298.039C260.03 301.732 255.019 303.805 249.795 303.804C244.571 303.802 239.562 301.725 235.869 298.031C232.176 294.336 230.102 289.325 230.104 284.101ZM230.129 198.748C230.131 193.524 232.207 188.515 235.902 184.822C239.597 181.129 244.608 179.056 249.832 179.057C255.056 179.059 260.065 181.135 263.758 184.83C267.45 188.525 269.524 193.536 269.523 198.76C269.521 203.984 267.444 208.993 263.75 212.686C260.055 216.379 255.044 218.452 249.82 218.451C244.596 218.449 239.587 216.373 235.894 212.678C232.201 208.983 230.128 203.972 230.129 198.748ZM230.154 113.395C230.156 108.172 232.232 103.162 235.927 99.4694C239.622 95.7766 244.633 93.7029 249.857 93.7044C255.081 93.7059 260.09 95.7826 263.783 99.4776C267.476 103.173 269.549 108.183 269.548 113.407C269.546 118.631 267.47 123.64 263.775 127.333C260.08 131.026 255.069 133.1 249.845 133.098C244.621 133.096 239.612 131.02 235.919 127.325C232.226 123.63 230.153 118.619 230.154 113.395ZM144.751 284.076C144.753 278.852 146.829 273.843 150.524 270.15C154.219 266.457 159.23 264.383 164.454 264.385C169.678 264.387 174.687 266.463 178.38 270.158C182.073 273.853 184.146 278.864 184.145 284.088C184.143 289.312 182.067 294.321 178.372 298.014C174.677 301.706 169.666 303.78 164.442 303.779C159.218 303.777 154.209 301.7 150.516 298.005C146.823 294.311 144.75 289.3 144.751 284.076ZM144.776 198.723C144.778 193.499 146.854 188.49 150.549 184.797C154.244 181.104 159.255 179.031 164.479 179.032C169.703 179.034 174.712 181.11 178.405 184.805C182.098 188.5 184.171 193.511 184.17 198.735C184.168 203.959 182.092 208.968 178.397 212.661C174.702 216.354 169.691 218.427 164.467 218.426C159.243 218.424 154.234 216.348 150.541 212.653C146.848 208.958 144.775 203.947 144.776 198.723ZM144.801 113.37C144.803 108.146 146.879 103.137 150.574 99.4443C154.269 95.7516 159.28 93.6778 164.504 93.6794C169.728 93.6809 174.737 95.7576 178.43 99.4525C182.123 103.147 184.196 108.158 184.195 113.382C184.193 118.606 182.117 123.615 178.422 127.308C174.727 131.001 169.716 133.075 164.492 133.073C159.268 133.071 154.259 130.995 150.566 127.3C146.873 123.605 144.8 118.594 144.801 113.37ZM59.3984 284.051C59.3991 281.464 59.9093 278.903 60.8999 276.514C61.8905 274.124 63.342 271.953 65.1715 270.125C67.0011 268.296 69.1728 266.846 71.5629 265.857C73.9529 264.868 76.5143 264.359 79.1009 264.36C81.6876 264.361 84.2487 264.871 86.6381 265.862C89.0276 266.852 91.1985 268.304 93.027 270.133C94.8555 271.963 96.3057 274.134 97.2949 276.524C98.284 278.914 98.7927 281.476 98.792 284.063C98.7904 289.286 96.7138 294.296 93.0188 297.989C89.3239 301.681 84.3133 303.755 79.0894 303.754C73.8655 303.752 68.8561 301.675 65.1633 297.98C61.4705 294.285 59.3968 289.275 59.3984 284.051ZM59.4234 198.698C59.4242 196.112 59.9344 193.55 60.925 191.161C61.9155 188.772 63.367 186.601 65.1966 184.772C67.0261 182.944 69.1979 181.493 71.5879 180.504C73.9779 179.515 76.5394 179.006 79.126 179.007C81.7126 179.008 84.2738 179.518 86.6632 180.509C89.0526 181.499 91.2236 182.951 93.0521 184.78C94.8805 186.61 96.3308 188.782 97.3199 191.172C98.3091 193.562 98.8178 196.123 98.817 198.71C98.8155 203.934 96.7388 208.943 93.0439 212.636C89.3489 216.329 84.3384 218.402 79.1144 218.401C73.8905 218.399 68.8812 216.323 65.1884 212.628C61.4956 208.933 59.4219 203.922 59.4234 198.698ZM59.4485 113.345C59.4492 110.759 59.9594 108.198 60.95 105.808C61.9406 103.419 63.3921 101.248 65.2216 99.4193C67.0512 97.5908 69.223 96.1406 71.613 95.1514C74.003 94.1623 76.5644 93.6535 79.1511 93.6543C81.7377 93.6551 84.2988 94.1653 86.6883 95.1559C89.0777 96.1464 91.2486 97.5979 93.0771 99.4275C94.9056 101.257 96.3558 103.429 97.345 105.819C98.3341 108.209 98.8428 110.77 98.8421 113.357C98.8405 118.581 96.7639 123.59 93.0689 127.283C89.374 130.976 84.3634 133.049 79.1395 133.048C73.9156 133.046 68.9062 130.97 65.2134 127.275C61.5207 123.58 59.4469 118.569 59.4485 113.345Z" fill="#333333" fill-opacity="0.85"/>
</g>
<defs>
<filter id="filter0_d_118_325" x="2.85156" y="41.1083" width="323.242" height="323.241" filterUnits="userSpaceOnUse" color-interpolation-filters="sRGB">
<feFlood flood-opacity="0" result="BackgroundImageFix"/>
<feColorMatrix in="SourceAlpha" type="matrix" values="0 0 0 0 0 0 0 0 0 0 0 0 0 0 0 0 0 0 127 0" result="hardAlpha"/>
<feOffset dy="4"/>
<feGaussianBlur stdDeviation="2"/>
<feComposite in2="hardAlpha" operator="out"/>
<feColorMatrix type="matrix" values="0 0 0 0 0 0 0 0 0 0 0 0 0 0 0 0 0 0 0.25 0"/>
<feBlend mode="normal" in2="BackgroundImageFix" result="effect1_dropShadow_118_325"/>
<feBlend mode="normal" in="SourceGraphic" in2="effect1_dropShadow_118_325" result="shape"/>
</filter>
</defs>
</svg>
