<svg width="33" height="33" viewBox="0 0 33 33" fill="none" xmlns="http://www.w3.org/2000/svg">
<g clip-path="url(#clip0_77_210)">
<path d="M33.0001 29.4422C33.0003 29.9094 32.9085 30.3721 32.7298 30.8039C32.5512 31.2357 32.2892 31.628 31.959 31.9586C31.6287 32.2891 31.2365 32.5513 30.8049 32.7303C30.3733 32.9092 29.9106 33.0014 29.4433 33.0015H3.5538C2.6103 33.001 1.70565 32.6257 1.03883 31.9582C0.372012 31.2907 -0.00236316 30.3857 -0.00195279 29.4422V3.55779C-0.00195288 2.6146 0.37262 1.71002 1.03941 1.04294C1.7062 0.375865 2.61061 0.000898422 3.5538 0.000488281H29.4433C30.3867 0.000761698 31.2913 0.375652 31.9582 1.04273C32.6252 1.70981 33 2.61446 33.0001 3.55779V29.4422Z" fill="#841CEC"/>
<path d="M16.7983 26.7221H10.0282C9.04848 26.7221 8.35084 26.5029 7.9337 26.0652C7.51552 25.6269 7.30566 24.9293 7.30566 23.9712V7.31138C7.30566 6.33375 7.51862 5.63199 7.94865 5.20402C8.37662 4.77605 9.06962 4.56104 10.0266 4.56104H17.2067C18.2648 4.56104 19.1815 4.62807 19.9586 4.75749C20.7336 4.88949 21.4291 5.14111 22.0417 5.51443C22.569 5.82883 23.0395 6.22995 23.4334 6.70088C23.8356 7.17989 24.1434 7.70944 24.3553 8.28746C24.5652 8.86754 24.6724 9.4801 24.6724 10.1251C24.6724 12.3423 23.5633 13.965 21.3456 14.9916C24.2568 15.9208 25.7155 17.7239 25.7155 20.4041C25.7155 21.6432 25.3969 22.759 24.7616 23.7531C24.147 24.7287 23.2515 25.4954 22.1928 25.9523C21.5184 26.2343 20.7418 26.4333 19.8627 26.5488C18.9877 26.6659 17.9657 26.7226 16.7968 26.7226M11.7926 7.93219V13.6608H15.9047C17.0231 13.6608 17.8873 13.5571 18.4983 13.3442C19.1083 13.1333 19.5724 12.7296 19.8972 12.1351C20.1483 11.7112 20.2741 11.2384 20.2741 10.713C20.2741 9.5956 19.8766 8.85103 19.0815 8.48339C18.2844 8.11627 17.0706 7.93168 15.436 7.93168H11.7906L11.7926 7.93219ZM16.4642 16.8819H11.7926V23.3514H16.6148C19.6492 23.3514 21.1662 22.2578 21.1662 20.071C21.1662 18.9532 20.7722 18.1421 19.9864 17.6368C19.2001 17.134 18.025 16.8819 16.4642 16.8819Z" fill="white"/>
</g>
<defs>
<clipPath id="clip0_77_210">
<rect width="33" height="33" fill="white"/>
</clipPath>
</defs>
</svg>
