<svg width="32" height="33" viewBox="0 0 32 33" fill="none" xmlns="http://www.w3.org/2000/svg">
<g clip-path="url(#clip0_77_189)">
<path d="M24.5 0H7.5C3.35786 0 0 3.4628 0 7.73438V25.2656C0 29.5372 3.35786 33 7.5 33H24.5C28.6421 33 32 29.5372 32 25.2656V7.73438C32 3.4628 28.6421 0 24.5 0Z" fill="#0277BD"/>
<path d="M6.71912 13.2324L7.07688 17.3499H16.012V13.2324H6.71912ZM16.0119 4.89844H6L6.363 9.01596H16.0119V4.89844ZM16.0119 28.21V23.926L15.9944 23.9308L11.5476 22.6927L11.2634 19.4086H7.25525L7.81462 25.8738L15.9935 28.2153L16.0119 28.21Z" fill="#EBEBEB"/>
<path d="M20.9147 17.3499L20.4512 22.6899L15.998 23.9295V28.2132L24.1834 25.8738L24.2434 25.1781L25.1817 14.3381L25.279 13.2324L25.9999 4.89844H15.998V9.01596H21.6242L21.2609 13.2324H15.998V17.3499H20.9147Z" fill="white"/>
</g>
<defs>
<clipPath id="clip0_77_189">
<rect width="32" height="33" fill="white"/>
</clipPath>
</defs>
</svg>
