<svg width="30" height="30" viewBox="0 0 30 30" fill="none" xmlns="http://www.w3.org/2000/svg">
<path d="M17.6006 18.469C17.8915 19.0586 18.3428 19.5541 18.9026 19.8988C19.4625 20.2434 20.1082 20.423 20.7656 20.4171C22.095 20.4171 22.9444 19.7524 22.9444 18.8346C22.9444 17.7349 22.0716 17.3449 20.6091 16.7046L19.8066 16.3605C17.4919 15.3743 15.9534 14.1387 15.9534 11.5268C15.9534 9.12023 17.7872 7.28929 20.6522 7.28929C21.582 7.22182 22.5112 7.42995 23.3234 7.88767C24.1356 8.34538 24.7949 9.03237 25.2188 9.86273L22.7203 11.4668C22.5567 11.0553 22.2718 10.7034 21.9034 10.4577C21.535 10.2121 21.1006 10.0843 20.6578 10.0915C20.4648 10.0721 20.2699 10.0931 20.0855 10.1532C19.9011 10.2133 19.7312 10.3111 19.5868 10.4405C19.4423 10.5699 19.3263 10.728 19.2464 10.9047C19.1664 11.0814 19.1241 11.2728 19.1222 11.4668C19.1222 12.4296 19.7184 12.8187 21.0909 13.4149L21.8934 13.758C24.6197 14.9271 26.1581 16.1187 26.1581 18.798C26.1581 21.6865 23.8894 23.269 20.8416 23.269C19.6544 23.3445 18.4707 23.0749 17.4333 22.4926C16.396 21.9104 15.5493 21.0405 14.9953 19.9877L17.6006 18.469ZM6.26813 18.7502C6.7725 19.6446 7.23094 20.4002 8.33063 20.4002C9.38438 20.4002 10.05 19.9877 10.05 18.3846V7.47679H13.2581V18.4296C13.2581 21.7512 11.31 23.2634 8.4675 23.2634C7.46343 23.3177 6.46642 23.0668 5.60765 22.5437C4.74888 22.0207 4.06858 21.2498 3.65625 20.3327L6.26813 18.7502Z" fill="#F5DE19"/>
</svg>
