<svg width="665" height="538" viewBox="0 0 665 538" fill="none" xmlns="http://www.w3.org/2000/svg">
<path d="M299.73 455.494C308.468 446.489 320.319 441.43 332.676 441.43C345.034 441.43 356.885 446.489 365.623 455.494C374.361 464.5 379.269 476.713 379.269 489.449C379.269 502.184 374.361 514.398 365.623 523.403C356.885 532.408 345.034 537.467 332.676 537.467C320.319 537.467 308.468 532.408 299.73 523.403C290.992 514.398 286.083 502.184 286.083 489.449C286.083 476.713 290.992 464.5 299.73 455.494ZM442.497 308.359C451.235 299.354 463.086 294.295 475.443 294.295C487.801 294.295 499.652 299.354 508.39 308.359C517.128 317.365 522.036 329.578 522.036 342.314C522.036 355.049 517.128 367.263 508.39 376.268C499.652 385.273 487.801 390.332 475.443 390.332C463.086 390.332 451.235 385.273 442.497 376.268C433.759 367.263 428.85 355.049 428.85 342.314C428.85 329.578 433.759 317.365 442.497 308.359ZM585.264 161.224C594.002 152.219 605.853 147.16 618.21 147.16C630.568 147.16 642.419 152.219 651.157 161.224C659.895 170.23 664.803 182.443 664.803 195.179C664.803 207.914 659.895 220.128 651.157 229.133C642.419 238.138 630.568 243.197 618.21 243.197C605.853 243.197 594.002 238.138 585.264 229.133C576.526 220.128 571.617 207.914 571.617 195.179C571.617 182.443 576.526 170.23 585.264 161.224ZM156.963 308.359C165.701 299.354 177.552 294.295 189.909 294.295C202.267 294.295 214.118 299.354 222.856 308.359C231.594 317.365 236.502 329.578 236.502 342.314C236.502 355.049 231.594 367.263 222.856 376.268C214.118 385.273 202.267 390.332 189.909 390.332C177.552 390.332 165.701 385.273 156.963 376.268C148.225 367.263 143.316 355.049 143.316 342.314C143.316 329.578 148.225 317.365 156.963 308.359ZM299.73 161.224C308.468 152.219 320.319 147.16 332.676 147.16C345.034 147.16 356.885 152.219 365.623 161.224C374.361 170.23 379.269 182.443 379.269 195.179C379.269 207.914 374.361 220.128 365.623 229.133C356.885 238.138 345.034 243.197 332.676 243.197C320.319 243.197 308.468 238.138 299.73 229.133C290.992 220.128 286.083 207.914 286.083 195.179C286.083 182.443 290.992 170.23 299.73 161.224ZM442.497 14.0892C451.235 5.08401 463.086 0.0249523 475.443 0.0249523C487.801 0.0249523 499.652 5.08401 508.39 14.0892C517.128 23.0945 522.036 35.3082 522.036 48.0435C522.036 60.7788 517.128 72.9925 508.39 81.9977C499.652 91.0029 487.801 96.062 475.443 96.062C463.086 96.062 451.235 91.0029 442.497 81.9977C433.759 72.9925 428.85 60.7788 428.85 48.0435C428.85 35.3081 433.759 23.0945 442.497 14.0892ZM14.1962 161.224C18.5228 156.765 23.6592 153.228 29.3121 150.815C34.965 148.402 41.0238 147.16 47.1425 147.16C53.2611 147.16 59.3199 148.402 64.9728 150.815C70.6257 153.228 75.7621 156.765 80.0887 161.224C84.4152 165.683 87.8473 170.977 90.1888 176.803C92.5303 182.629 93.7355 188.873 93.7355 195.179C93.7355 201.484 92.5303 207.729 90.1888 213.554C87.8473 219.38 84.4152 224.674 80.0887 229.133C71.3508 238.138 59.4997 243.197 47.1425 243.197C34.7852 243.197 22.9341 238.138 14.1962 229.133C5.45834 220.128 0.549444 207.914 0.549444 195.179C0.549444 182.443 5.45834 170.23 14.1962 161.224ZM156.963 14.0892C161.29 9.6303 166.426 6.09326 172.079 3.68011C177.732 1.26695 183.791 0.0249098 189.909 0.0249098C196.028 0.0249098 202.087 1.26697 207.74 3.68013C213.393 6.09328 218.529 9.63029 222.856 14.0892C227.182 18.5482 230.614 23.8417 232.956 29.6676C235.297 35.4935 236.502 41.7376 236.502 48.0435C236.502 54.3494 235.297 60.5935 232.956 66.4194C230.614 72.2452 227.182 77.5388 222.856 81.9977C214.118 91.0029 202.267 96.062 189.909 96.062C177.552 96.062 165.701 91.0029 156.963 81.9977C148.225 72.9925 143.316 60.7788 143.316 48.0435C143.316 35.3082 148.225 23.0945 156.963 14.0892Z" fill="url(#paint0_linear_118_270)" fill-opacity="0.58"/>
<defs>
<linearGradient id="paint0_linear_118_270" x1="485.24" y1="194.911" x2="618.173" y2="194.911" gradientUnits="userSpaceOnUse">
<stop stop-color="#EC6969"/>
<stop offset="1" stop-color="#4D4D4D"/>
</linearGradient>
</defs>
</svg>
