<svg width="237" height="21" viewBox="0 0 237 21" fill="none" xmlns="http://www.w3.org/2000/svg">
<path d="M0.0758125 21V0.839999H3.18381L11.5558 10.808L19.9278 0.839999H23.0358V21H20.7678V3.416L11.5558 14.364L2.34381 3.416V21H0.0758125ZM34.6484 21V13.412L25.3804 0.839999H27.9844L35.7964 10.696L43.5244 0.839999H46.1844L36.9164 13.412V21H34.6484ZM232.66 21V17.332H236.328V21H232.66Z" fill="#E84558"/>
<path d="M48.611 21V0.867999H65.411C66.027 0.867999 66.587 1.02667 67.091 1.344C67.6136 1.64267 68.0243 2.044 68.323 2.548C68.6216 3.052 68.771 3.612 68.771 4.228V10.136C68.771 10.752 68.6216 11.312 68.323 11.816C68.0243 12.32 67.6136 12.7307 67.091 13.048C66.587 13.3467 66.027 13.496 65.411 13.496H50.879V21H48.611ZM51.971 11.2H65.411C65.7096 11.2 65.9616 11.0973 66.167 10.892C66.391 10.6867 66.503 10.4347 66.503 10.136V4.228C66.503 3.92933 66.391 3.67733 66.167 3.472C65.9616 3.248 65.7096 3.136 65.411 3.136H51.971C51.6723 3.136 51.411 3.248 51.187 3.472C50.9816 3.67733 50.879 3.92933 50.879 4.228V10.136C50.879 10.4347 50.9816 10.6867 51.187 10.892C51.411 11.0973 51.6723 11.2 51.971 11.2ZM74.0634 21C73.4474 21 72.8781 20.8507 72.3554 20.552C71.8514 20.2533 71.4501 19.852 71.1514 19.348C70.8527 18.8253 70.7034 18.256 70.7034 17.64V4.2C70.7034 3.584 70.8527 3.024 71.1514 2.52C71.4501 1.99733 71.8514 1.58667 72.3554 1.288C72.8781 0.989332 73.4474 0.839999 74.0634 0.839999H87.5034C88.1194 0.839999 88.6794 0.989332 89.1834 1.288C89.7061 1.58667 90.1167 1.99733 90.4154 2.52C90.7141 3.024 90.8634 3.584 90.8634 4.2V17.64C90.8634 18.256 90.7141 18.8253 90.4154 19.348C90.1167 19.852 89.7061 20.2533 89.1834 20.552C88.6794 20.8507 88.1194 21 87.5034 21H74.0634ZM74.0634 18.732H87.5034C87.8021 18.732 88.0541 18.6293 88.2594 18.424C88.4834 18.2 88.5954 17.9387 88.5954 17.64V4.2C88.5954 3.90133 88.4834 3.64933 88.2594 3.444C88.0541 3.22 87.8021 3.108 87.5034 3.108H74.0634C73.7647 3.108 73.5034 3.22 73.2794 3.444C73.0741 3.64933 72.9714 3.90133 72.9714 4.2V17.64C72.9714 17.9387 73.0741 18.2 73.2794 18.424C73.5034 18.6293 73.7647 18.732 74.0634 18.732ZM110.971 21L104.391 13.16H107.359L113.967 20.972V21H110.971ZM93.9469 21V0.867999H110.747C111.363 0.867999 111.923 1.02667 112.427 1.344C112.95 1.64267 113.36 2.044 113.659 2.548C113.958 3.052 114.107 3.612 114.107 4.228V10.136C114.107 10.752 113.958 11.312 113.659 11.816C113.36 12.32 112.95 12.7307 112.427 13.048C111.923 13.3467 111.363 13.496 110.747 13.496H96.2149V21H93.9469ZM97.3069 11.2H110.747C111.046 11.2 111.298 11.0973 111.503 10.892C111.727 10.6867 111.839 10.4347 111.839 10.136V4.228C111.839 3.92933 111.727 3.67733 111.503 3.472C111.298 3.248 111.046 3.136 110.747 3.136H97.3069C97.0082 3.136 96.7469 3.248 96.5229 3.472C96.3176 3.67733 96.2149 3.92933 96.2149 4.228V10.136C96.2149 10.4347 96.3176 10.6867 96.5229 10.892C96.7469 11.0973 97.0082 11.2 97.3069 11.2ZM125.004 21V3.108H116.044V0.839999H136.204V3.108H127.272V21H125.004ZM138.354 21V0.839999H156.75V3.108H140.622V9.772H153.586V12.068H140.622V21H138.354ZM161.837 21C161.221 21 160.652 20.8507 160.129 20.552C159.625 20.2533 159.224 19.852 158.925 19.348C158.626 18.8253 158.477 18.256 158.477 17.64V4.2C158.477 3.584 158.626 3.024 158.925 2.52C159.224 1.99733 159.625 1.58667 160.129 1.288C160.652 0.989332 161.221 0.839999 161.837 0.839999H175.277C175.893 0.839999 176.453 0.989332 176.957 1.288C177.48 1.58667 177.89 1.99733 178.189 2.52C178.488 3.024 178.637 3.584 178.637 4.2V17.64C178.637 18.256 178.488 18.8253 178.189 19.348C177.89 19.852 177.48 20.2533 176.957 20.552C176.453 20.8507 175.893 21 175.277 21H161.837ZM161.837 18.732H175.277C175.576 18.732 175.828 18.6293 176.033 18.424C176.257 18.2 176.369 17.9387 176.369 17.64V4.2C176.369 3.90133 176.257 3.64933 176.033 3.444C175.828 3.22 175.576 3.108 175.277 3.108H161.837C161.538 3.108 161.277 3.22 161.053 3.444C160.848 3.64933 160.745 3.90133 160.745 4.2V17.64C160.745 17.9387 160.848 18.2 161.053 18.424C161.277 18.6293 161.538 18.732 161.837 18.732ZM181.748 21V0.812H184.016V18.732H201.908V21H181.748ZM203.821 21V0.839999H206.117V21H203.821ZM212.833 21C212.217 21 211.648 20.8507 211.125 20.552C210.621 20.2533 210.22 19.852 209.921 19.348C209.622 18.8253 209.473 18.256 209.473 17.64V4.2C209.473 3.584 209.622 3.024 209.921 2.52C210.22 1.99733 210.621 1.58667 211.125 1.288C211.648 0.989332 212.217 0.839999 212.833 0.839999H226.273C226.889 0.839999 227.449 0.989332 227.953 1.288C228.476 1.58667 228.886 1.99733 229.185 2.52C229.484 3.024 229.633 3.584 229.633 4.2V17.64C229.633 18.256 229.484 18.8253 229.185 19.348C228.886 19.852 228.476 20.2533 227.953 20.552C227.449 20.8507 226.889 21 226.273 21H212.833ZM212.833 18.732H226.273C226.572 18.732 226.824 18.6293 227.029 18.424C227.253 18.2 227.365 17.9387 227.365 17.64V4.2C227.365 3.90133 227.253 3.64933 227.029 3.444C226.824 3.22 226.572 3.108 226.273 3.108H212.833C212.534 3.108 212.273 3.22 212.049 3.444C211.844 3.64933 211.741 3.90133 211.741 4.2V17.64C211.741 17.9387 211.844 18.2 212.049 18.424C212.273 18.6293 212.534 18.732 212.833 18.732Z" fill="#FFFAD7"/>
</svg>
