<svg width="798" height="822" viewBox="0 0 798 822" fill="none" xmlns="http://www.w3.org/2000/svg">
<path d="M373.803 607.822C380.413 601.011 389.377 597.184 398.723 597.184C408.07 597.184 417.034 601.011 423.644 607.822C430.253 614.634 433.966 623.872 433.966 633.505C433.966 643.138 430.253 652.376 423.644 659.187C417.034 665.999 408.07 669.826 398.723 669.826C389.377 669.826 380.413 665.999 373.803 659.187C367.194 652.376 363.481 643.138 363.481 633.505C363.481 623.872 367.194 614.634 373.803 607.822ZM481.791 496.531C488.4 489.719 497.364 485.893 506.711 485.893C516.058 485.893 525.022 489.719 531.631 496.531C538.24 503.342 541.953 512.581 541.953 522.213C541.953 531.846 538.24 541.085 531.631 547.896C525.022 554.708 516.058 558.534 506.711 558.534C497.364 558.534 488.4 554.708 481.791 547.896C475.182 541.085 471.468 531.846 471.468 522.213C471.468 512.581 475.182 503.342 481.791 496.531ZM589.778 385.239C596.387 378.428 605.352 374.601 614.698 374.601C624.045 374.601 633.009 378.428 639.619 385.239C646.228 392.051 649.941 401.289 649.941 410.922C649.941 420.555 646.228 429.793 639.619 436.605C633.009 443.416 624.045 447.243 614.698 447.243C605.352 447.243 596.387 443.416 589.778 436.605C583.169 429.793 579.456 420.555 579.456 410.922C579.456 401.289 583.169 392.051 589.778 385.239ZM265.816 496.531C272.425 489.719 281.389 485.893 290.736 485.893C300.083 485.893 309.047 489.719 315.656 496.531C322.265 503.342 325.978 512.581 325.978 522.213C325.978 531.846 322.265 541.085 315.656 547.896C309.047 554.708 300.083 558.534 290.736 558.534C281.389 558.534 272.425 554.708 265.816 547.896C259.207 541.085 255.494 531.846 255.494 522.213C255.494 512.581 259.207 503.342 265.816 496.531ZM373.803 385.239C380.413 378.428 389.377 374.601 398.723 374.601C408.07 374.601 417.034 378.428 423.644 385.239C430.253 392.051 433.966 401.289 433.966 410.922C433.966 420.555 430.253 429.793 423.644 436.605C417.034 443.416 408.07 447.243 398.723 447.243C389.377 447.243 380.413 443.416 373.803 436.605C367.194 429.793 363.481 420.555 363.481 410.922C363.481 401.289 367.194 392.051 373.803 385.239ZM481.791 273.948C488.4 267.137 497.364 263.31 506.711 263.31C516.058 263.31 525.022 267.137 531.631 273.948C538.24 280.759 541.953 289.998 541.953 299.631C541.953 309.263 538.24 318.502 531.631 325.313C525.022 332.125 516.058 335.951 506.711 335.951C497.364 335.951 488.4 332.125 481.791 325.313C475.182 318.502 471.468 309.263 471.468 299.631C471.468 289.998 475.182 280.759 481.791 273.948ZM157.828 385.239C161.101 381.867 164.986 379.191 169.262 377.366C173.538 375.541 178.12 374.601 182.749 374.601C187.377 374.601 191.959 375.541 196.235 377.366C200.511 379.191 204.396 381.867 207.669 385.239C210.941 388.612 213.537 392.616 215.308 397.023C217.079 401.429 217.991 406.152 217.991 410.922C217.991 415.692 217.079 420.415 215.308 424.821C213.537 429.228 210.941 433.232 207.669 436.605C201.06 443.416 192.095 447.243 182.749 447.243C173.402 447.243 164.438 443.416 157.828 436.605C151.219 429.793 147.506 420.555 147.506 410.922C147.506 401.289 151.219 392.051 157.828 385.239ZM265.816 273.948C269.088 270.575 272.974 267.9 277.249 266.075C281.525 264.249 286.108 263.31 290.736 263.31C295.364 263.31 299.947 264.249 304.223 266.075C308.499 267.9 312.384 270.575 315.656 273.948C318.929 277.321 321.525 281.325 323.296 285.731C325.067 290.138 325.978 294.861 325.978 299.631C325.978 304.4 325.067 309.123 323.296 313.53C321.525 317.937 318.929 321.941 315.656 325.313C309.047 332.125 300.083 335.951 290.736 335.951C281.389 335.951 272.425 332.125 265.816 325.313C259.207 318.502 255.494 309.263 255.494 299.631C255.494 289.998 259.207 280.759 265.816 273.948Z" fill="#EC6969" fill-opacity="0.58"/>
</svg>
