<svg width="33" height="33" viewBox="0 0 33 33" fill="none" xmlns="http://www.w3.org/2000/svg">
<g clip-path="url(#clip0_124_2)">
<path d="M25.2656 0H7.73438C3.4628 0 0 3.4628 0 7.73438V25.2656C0 29.5372 3.4628 33 7.73438 33H25.2656C29.5372 33 33 29.5372 33 25.2656V7.73438C33 3.4628 29.5372 0 25.2656 0Z" fill="#CD6799"/>
<mask id="mask0_124_2" style="mask-type:luminance" maskUnits="userSpaceOnUse" x="3" y="6" width="27" height="21">
<path d="M3.60938 6.83203H29.3906V26.1562H3.60938V6.83203Z" fill="white"/>
</mask>
<g mask="url(#mask0_124_2)">
<path d="M25.7953 17.9388C24.8963 17.9434 24.1151 18.16 23.4609 18.4799C23.2209 18.0047 22.9808 17.5811 22.9384 17.2704C22.8914 16.908 22.8349 16.6868 22.8914 16.2538C22.9478 15.8209 23.202 15.2044 23.1973 15.1574C23.1926 15.1102 23.1408 14.8891 22.6231 14.8843C22.1054 14.8797 21.6584 14.9832 21.6066 15.1197C21.5548 15.2561 21.456 15.5668 21.3901 15.8869C21.3007 16.3575 20.3546 18.0377 19.8135 18.9177C19.6393 18.5742 19.4888 18.2729 19.4558 18.0329C19.4087 17.6705 19.3523 17.4493 19.4087 17.0163C19.4652 16.5833 19.7194 15.9668 19.7146 15.9197C19.71 15.8727 19.6582 15.6515 19.1405 15.6468C18.6228 15.6421 18.1756 15.7456 18.1239 15.8821C18.0721 16.0186 18.0156 16.3387 17.9074 16.6492C17.7992 16.9599 16.5426 19.7649 16.2131 20.4896C16.08 20.7829 15.9404 21.0731 15.7943 21.3602C15.7943 21.3602 15.7896 21.3744 15.7755 21.3978C15.7296 21.4879 15.6825 21.5773 15.6342 21.6661V21.6709C15.5637 21.798 15.4883 21.9155 15.4507 21.9155C15.4224 21.9155 15.3707 21.5768 15.4601 21.1155C15.6484 20.1413 16.0954 18.6259 16.0908 18.5742C16.0908 18.5459 16.1755 18.2823 15.799 18.1458C15.4318 18.0093 15.3001 18.2353 15.2671 18.2353C15.2342 18.2353 15.2106 18.3153 15.2106 18.3153C15.2106 18.3153 15.6202 16.6116 14.4295 16.6116C13.6858 16.6116 12.6598 17.4257 12.1517 18.16C11.5738 18.4744 10.9965 18.7897 10.4196 19.1059C10.142 19.2612 9.85497 19.4166 9.58658 19.5625C9.56776 19.5437 9.54894 19.5201 9.53012 19.5013C8.08998 17.9622 5.42626 16.8752 5.53919 14.8091C5.5816 14.056 5.84044 12.0793 10.655 9.67911C14.6177 7.72605 17.771 8.2672 18.3169 9.46732C19.0981 11.1805 16.6273 14.3619 12.5329 14.8231C10.9703 14.9973 10.1515 14.3949 9.94443 14.169C9.72786 13.9337 9.69486 13.9196 9.61481 13.9667C9.48307 14.0372 9.56776 14.249 9.61481 14.3713C9.73727 14.6914 10.2408 15.2561 11.0926 15.5338C11.8457 15.7786 13.6764 15.9151 15.8931 15.0585C18.3733 14.0984 20.3124 11.4298 19.7428 9.19443C19.1735 6.92593 15.4084 6.17763 11.8457 7.44362C9.72774 8.19669 7.43114 9.38263 5.77921 10.9263C3.81661 12.7619 3.50608 14.3573 3.63318 15.0255C4.08963 17.3975 7.3605 18.9412 8.6689 20.0848C8.60303 20.1225 8.5418 20.1555 8.49011 20.1837C7.83591 20.5084 5.34157 21.812 4.72024 23.1911C4.01435 24.7535 4.83329 25.8736 5.37444 26.0242C7.05461 26.4902 8.78182 25.6524 9.70904 24.2687C10.6361 22.885 10.5232 21.0873 10.0949 20.2637C10.0903 20.2533 10.0839 20.2437 10.076 20.2355C10.2456 20.1366 10.4196 20.0331 10.5891 19.9342C10.9005 19.7502 11.2159 19.5729 11.535 19.4024C11.375 19.8401 11.2573 20.3625 11.2009 21.1155C11.1304 22.0004 11.4927 23.1487 11.968 23.6005C12.1798 23.7981 12.4292 23.8029 12.5893 23.8029C13.1447 23.8029 13.3941 23.3416 13.6718 22.7957C14.0105 22.1273 14.3165 21.3508 14.3165 21.3508C14.3165 21.3508 13.9352 23.4499 14.9706 23.4499C15.3471 23.4499 15.7283 22.9605 15.8978 22.711V22.7157C15.8978 22.7157 15.9072 22.7016 15.9261 22.6686C15.9637 22.6074 15.9872 22.5697 15.9872 22.5697V22.5603C16.1379 22.2968 16.4766 21.6991 16.9803 20.706C17.6297 19.426 18.2557 17.8259 18.2557 17.8259C18.2557 17.8259 18.3121 18.2164 18.5051 18.8659C18.618 19.2472 18.8534 19.666 19.0416 20.0708C18.891 20.2826 18.7969 20.4001 18.7969 20.4001L18.8016 20.4049C18.6792 20.5649 18.5475 20.739 18.4016 20.9084C17.8885 21.5203 17.2767 22.2216 17.1921 22.4239C17.0932 22.664 17.1168 22.838 17.305 22.9793C17.4415 23.0828 17.6861 23.0968 17.9356 23.0828C18.3968 23.0498 18.7217 22.9369 18.8816 22.8662C19.1311 22.7769 19.4229 22.6404 19.6958 22.438C20.1994 22.0662 20.5053 21.5344 20.4771 20.8331C20.4629 20.4472 20.3358 20.0614 20.1806 19.6989C20.2277 19.633 20.2699 19.5671 20.317 19.5013C21.1125 18.3388 21.7289 17.0634 21.7289 17.0634C21.7289 17.0634 21.7854 17.454 21.9783 18.1035C22.0724 18.4329 22.2654 18.7906 22.4349 19.1389C21.6866 19.746 21.2254 20.4519 21.0607 20.9132C20.7642 21.7697 20.9948 22.1556 21.4324 22.245C21.6302 22.2874 21.9125 22.1933 22.1196 22.1039C22.3831 22.0192 22.6938 21.8733 22.9903 21.6567C23.4938 21.2849 23.9786 20.7672 23.9503 20.066C23.9362 19.746 23.8515 19.4306 23.7338 19.1247C24.3692 18.8612 25.1881 18.7153 26.2329 18.8376C28.4732 19.1013 28.9156 20.499 28.8307 21.0873C28.746 21.6755 28.2754 21.9956 28.1201 22.0945C27.9649 22.1933 27.9131 22.2262 27.9272 22.2968C27.9461 22.4004 28.0213 22.3956 28.1531 22.3768C28.3366 22.3439 29.3296 21.9015 29.372 20.8191C29.4427 19.4354 28.1248 17.9246 25.7953 17.9388ZM8.51357 23.7652C7.77004 24.5746 6.73466 24.8806 6.28749 24.6218C5.80744 24.344 5.99564 23.1487 6.90881 22.2921C7.46401 21.7697 8.17944 21.2849 8.65472 20.9884C8.763 20.9226 8.92297 20.8285 9.11595 20.7108C9.14895 20.692 9.16777 20.6825 9.16777 20.6825L9.28069 20.6119C9.61481 21.8356 9.29474 22.9134 8.51357 23.7652ZM13.9258 20.0848C13.667 20.7156 13.1258 22.3297 12.7963 22.2404C12.514 22.165 12.3399 20.9414 12.7399 19.7319C12.9423 19.1247 13.3705 18.4 13.6199 18.1176C14.0247 17.6658 14.4717 17.5152 14.58 17.6988C14.7165 17.9388 14.0859 19.6895 13.9258 20.0848ZM18.3922 22.2216C18.2839 22.278 18.1804 22.3157 18.1333 22.2874C18.1003 22.2686 18.1804 22.1933 18.1804 22.1933C18.1804 22.1933 18.7405 21.5908 18.9617 21.3179C19.0887 21.1578 19.2393 20.9696 19.3993 20.7578V20.8191C19.3993 21.5391 18.7028 22.0238 18.3922 22.2216ZM21.8372 21.4355C21.7571 21.379 21.7713 21.1908 22.0396 20.6025C22.1431 20.3719 22.3879 19.9861 22.8067 19.6142C22.8537 19.7649 22.8867 19.9107 22.882 20.0472C22.8773 20.9556 22.2278 21.2943 21.8372 21.4355Z" fill="white"/>
</g>
</g>
<defs>
<clipPath id="clip0_124_2">
<rect width="33" height="33" fill="white"/>
</clipPath>
</defs>
</svg>
